<svg width="40" height="40" viewBox="0 0 40 40" fill="none" xmlns="http://www.w3.org/2000/svg">
<rect opacity="0.1" width="40" height="40" fill="white"/>
<path d="M28 15.5441C27.4116 15.7979 26.7713 15.9805 26.1118 16.0517C26.7965 15.6449 27.3093 15.0022 27.5539 14.2442C26.9113 14.6265 26.2074 14.8945 25.4734 15.0364C25.1666 14.7084 24.7955 14.4471 24.3833 14.2688C23.9711 14.0905 23.5266 13.999 23.0775 14C21.2604 14 19.7991 15.4729 19.7991 17.2804C19.7991 17.5342 19.8298 17.788 19.8798 18.0322C17.159 17.8899 14.7324 16.5901 13.1191 14.5999C12.8251 15.102 12.6711 15.6737 12.673 16.2555C12.673 17.3938 13.2518 18.3976 14.1344 18.9879C13.6142 18.9674 13.1063 18.8244 12.6518 18.5706V18.611C12.6518 20.205 13.7786 21.526 15.2804 21.8298C14.9984 21.9031 14.7083 21.9405 14.417 21.9414C14.2036 21.9414 14.0017 21.9202 13.7979 21.8914C14.2132 23.1912 15.4227 24.1353 16.8629 24.1661C15.7361 25.0487 14.3247 25.5678 12.7922 25.5678C12.5172 25.5678 12.2634 25.5582 12 25.5275C13.4537 26.46 15.1785 26.9984 17.0359 26.9984C23.066 26.9984 26.3656 22.0029 26.3656 17.6669C26.3656 17.5246 26.3656 17.3823 26.356 17.24C26.9944 16.7728 27.5539 16.194 28 15.5441Z" fill="white"/>
</svg>
